<svg width="29" height="32" viewBox="0 0 29 32" fill="none" xmlns="http://www.w3.org/2000/svg">
<path d="M20.5148 14.3042C20.5197 16.8412 18.984 19.1311 16.6242 20.1054C14.2645 21.0796 11.5459 20.5461 9.73712 18.7538C7.92827 16.9616 7.38569 14.2638 8.36253 11.9194C9.33947 9.57498 11.6432 8.04608 14.1989 8.04608C17.681 8.04936 20.5049 10.8473 20.5148 14.3042Z" fill="#fff"/>
<path fill-rule="evenodd" clip-rule="evenodd" d="M6.94635 26.0872L8.36925 22.8331C4.24014 20.0538 2.69005 14.7495 4.67982 10.2081C6.66959 5.66669 11.635 3.17573 16.4983 4.2793L17.9212 1.02509C11.2433 -0.815156 4.22026 2.50958 1.45726 8.81917C-1.30574 15.1287 1.03576 22.4949 6.94635 26.0872ZM12.6559 32.2381L14.4571 28.1137C20.6367 28.007 26.0023 23.8604 27.6224 17.9393C29.2425 12.0182 26.7275 5.74659 21.4514 2.55088L20.0286 5.80508C24.1546 8.5844 25.7036 13.8857 23.7161 18.4254C21.7285 22.9652 16.7673 25.4575 11.9055 24.3588L8.45331 32.2381H12.6559Z" fill="#fff"/>
</svg>
